# xmcd
#
# Track frame offsets:
#	150
#	11145
#	21556
#	33807
#	46802
#	58081
#	73324
#	86527
#	98739
#	110949
#	123786
#	133124
#	143850
#	154146
#	162232
#	173615
#
# Disc length: 2479 seconds
#
# Revision: 0
# Processed by: cddbd v1.5.2PL0 Copyright (c) Steve Scherf et al.
# Submitted via: dBpowerAMP V4.0
#
DISCID=dc09ad10
DTITLE=AAvv - Country Classics vol.2
DYEAR=2006
DGENRE=Country
TTITLE0=Roger Miller - King of the road
TTITLE1=Jim Nesbitt - Running Bare
TTITLE2=Johnny Cash - I walk the line
TTITLE3=Kenny Rogers - Ruby (don't take your love to town)
TTITLE4=Waylon Jennings - Sally was a good old girl
TTITLE5=Earl Thomas Conley - The night they drove old dixie down
TTITLE6=Ferlin Husky - Country music is there to stay
TTITLE7=Johnny Dollar - Big big rolling man
TTITLE8=Billie Jo Spears - What I've got in mind
TTITLE9=Don Williams - Where do we go from here
TTITLE10=Freddy Fender - Running back
TTITLE11=Carl Belew - Am I that easy to forget
TTITLE12=Patsy Cline - Pick me up on your way down
TTITLE13=Willie Nelson - You wouldn't cross the street to say goodbye
TTITLE14=Frankie Laine - Mule train
TTITLE15=Glen Campbell - By the time I get to Phoenix
EXTD=
EXTT0=
EXTT1=
EXTT2=
EXTT3=
EXTT4=
EXTT5=
EXTT6=
EXTT7=
EXTT8=
EXTT9=
EXTT10=
EXTT11=
EXTT12=
EXTT13=
EXTT14=
EXTT15=
PLAYORDER=
